<svg version="1.1" id="Layer_1" xmlns="http://www.w3.org/2000/svg" xmlns:xlink="http://www.w3.org/1999/xlink" x="0px" y="0px"
	 width="100%" viewBox="0 0 454 545" enable-background="new 0 0 454 545" xml:space="preserve">

<path fill="#020202" opacity="1.000000" stroke="none"
	d="
M324.683716,18.103294
	C347.467346,26.793362 358.593903,43.019691 358.598907,67.245575
	C358.615967,150.229889 358.625488,233.214218 358.542969,316.198456
	C358.539185,319.996490 359.306488,322.282806 362.996460,324.443604
	C402.726074,347.708435 423.972595,393.593628 415.680878,437.482300
	C406.831909,484.320465 371.841980,518.832642 325.024078,526.649109
	C319.303436,527.604248 313.418793,527.939209 307.609436,527.945862
	C234.456741,528.030273 161.303909,528.030945 88.151146,527.984863
	C63.507145,527.969299 44.209457,512.462341 39.578018,488.941925
	C38.813244,485.058014 38.749954,480.990845 38.748840,477.008270
	C38.710503,340.200836 38.705833,203.393387 38.730373,66.585938
	C38.735828,36.174892 59.075844,16.001936 89.551857,16.003431
	C162.038101,16.006990 234.524429,15.955845 307.010437,16.086548
	C312.771149,16.096935 318.529633,17.340994 324.683716,18.103294
M326.715302,285.500092
	C326.715271,212.850143 326.716187,140.200180 326.709167,67.550232
	C326.709015,65.886063 326.754761,64.204910 326.548492,62.560596
	C325.465820,53.928467 319.062836,48.196144 310.322021,48.016739
	C306.824310,47.944950 303.323883,48.002441 299.824707,48.002224
	C292.575073,48.001774 285.325439,48.002087 278.180878,48.002087
	C278.077423,48.869373 278.041443,49.031574 278.041107,49.193848
	C278.025940,56.191891 278.034668,63.190052 277.996796,70.187965
	C277.934540,81.692024 271.589935,87.987061 259.950867,87.993507
	C218.960312,88.016205 177.969727,88.019180 136.979187,87.995918
	C125.825569,87.989586 119.293602,81.479073 119.205414,70.343872
	C119.147644,63.050587 119.194496,55.756481 119.194496,48.001804
	C109.246811,48.001804 99.627525,47.999775 90.008232,48.002289
	C76.374237,48.005856 70.718849,53.702141 70.723518,67.480431
	C70.769806,204.115677 70.820854,340.750916 70.874306,477.386169
	C70.879234,489.981323 76.921509,496.000519 89.554855,496.001373
	C134.711121,496.004395 179.867386,496.000000 225.023651,495.998383
	C226.604858,495.998322 228.186066,495.998383 230.048401,495.998383
	C197.601608,458.559692 188.058533,416.893921 209.463760,372.228394
	C232.640656,323.865997 273.812195,305.292297 326.715240,310.425964
	C326.715240,302.459625 326.715240,294.479858 326.715302,285.500092
M374.566315,420.162048
	C374.475952,409.084869 368.291962,402.812012 357.291656,402.761047
	C346.341217,402.710297 335.390350,402.749908 323.998901,402.749908
	C323.998901,391.224579 324.004913,379.939423 323.996735,368.654297
	C323.991486,361.412292 320.652344,356.112732 314.105255,353.253632
	C303.659363,348.691986 292.224579,356.373871 292.042725,368.038910
	C291.864349,379.478607 292.003845,390.923279 292.003845,402.762848
	C279.854095,402.762848 268.222595,402.555908 256.601898,402.821136
	C244.998398,403.085968 237.725372,414.896454 242.631409,425.252594
	C245.833862,432.012695 251.584015,434.757721 258.854919,434.753113
	C269.789551,434.746216 280.724213,434.751312 291.999756,434.751312
	C291.999756,446.373718 292.058838,457.506775 291.974121,468.638763
	C291.933502,473.978485 293.692657,478.471802 297.826233,481.829010
	C302.925049,485.970215 308.671509,486.836060 314.649994,484.038727
	C320.582245,481.263062 323.860779,476.402222 323.946289,469.826019
	C324.097260,458.213959 323.988586,446.598541 323.988586,434.745148
	C335.500488,434.745148 346.475952,434.852173 357.448273,434.712311
	C366.731506,434.593994 372.337921,429.901154 374.566315,420.162048
z"/>

<path fill="#FCFCFC" opacity="1.000000" stroke="none"
	d="
M374.486694,420.549500
	C372.337921,429.901154 366.731506,434.593994 357.448273,434.712311
	C346.475952,434.852173 335.500488,434.745148 323.988586,434.745148
	C323.988586,446.598541 324.097260,458.213959 323.946289,469.826019
	C323.860779,476.402222 320.582245,481.263062 314.649994,484.038727
	C308.671509,486.836060 302.925049,485.970215 297.826233,481.829010
	C293.692657,478.471802 291.933502,473.978485 291.974121,468.638763
	C292.058838,457.506775 291.999756,446.373718 291.999756,434.751312
	C280.724213,434.751312 269.789551,434.746216 258.854919,434.753113
	C251.584015,434.757721 245.833862,432.012695 242.631409,425.252594
	C237.725372,414.896454 244.998398,403.085968 256.601898,402.821136
	C268.222595,402.555908 279.854095,402.762848 292.003845,402.762848
	C292.003845,390.923279 291.864349,379.478607 292.042725,368.038910
	C292.224579,356.373871 303.659363,348.691986 314.105255,353.253632
	C320.652344,356.112732 323.991486,361.412292 323.996735,368.654297
	C324.004913,379.939423 323.998901,391.224579 323.998901,402.749908
	C335.390350,402.749908 346.341217,402.710297 357.291656,402.761047
	C368.291962,402.812012 374.475952,409.084869 374.486694,420.549500
z"/>
</svg>
